<?xml version="1.0" encoding="UTF-8" standalone="no"?>
<!-- Created with Inkscape (http://www.inkscape.org/) -->

<svg
   xmlns:dc="http://purl.org/dc/elements/1.1/"
   xmlns:cc="http://creativecommons.org/ns#"
   xmlns:rdf="http://www.w3.org/1999/02/22-rdf-syntax-ns#"
   xmlns:svg="http://www.w3.org/2000/svg"
   xmlns="http://www.w3.org/2000/svg"
   xmlns:sodipodi="http://sodipodi.sourceforge.net/DTD/sodipodi-0.dtd"
   xmlns:inkscape="http://www.inkscape.org/namespaces/inkscape"
   width="204.04582mm"
   height="84.569862mm"
   viewBox="0 0 722.99701 299.65699"
   id="svg4427"
   version="1.1"
   inkscape:version="0.91 r13725"
   sodipodi:docname="logo_ohne_rand.svg">
  <defs
     id="defs4429" />
  <sodipodi:namedview
     id="base"
     pagecolor="#ffffff"
     bordercolor="#666666"
     borderopacity="1.0"
     inkscape:pageopacity="0.0"
     inkscape:pageshadow="2"
     inkscape:zoom="0.66"
     inkscape:cx="-255.62772"
     inkscape:cy="476.38708"
     inkscape:document-units="px"
     inkscape:current-layer="layer1"
     showgrid="false"
     inkscape:window-width="1920"
     inkscape:window-height="1017"
     inkscape:window-x="-8"
     inkscape:window-y="-8"
     inkscape:window-maximized="1"
     fit-margin-top="0"
     fit-margin-left="0"
     fit-margin-right="0"
     fit-margin-bottom="0" />
  <metadata
     id="metadata4432">
    <rdf:RDF>
      <cc:Work
         rdf:about="">
        <dc:format>image/svg+xml</dc:format>
        <dc:type
           rdf:resource="http://purl.org/dc/dcmitype/StillImage" />
        <dc:title></dc:title>
      </cc:Work>
    </rdf:RDF>
  </metadata>
  <g
     inkscape:label="Ebene 1"
     inkscape:groupmode="layer"
     id="layer1"
     transform="translate(-9.9300625,-79.676563)">
    <g
       id="g4310"
       inkscape:export-filename="D:\dropbox\Studium\FS\Logo\d120_logo\logo_schutzzone_transparent.png"
       inkscape:export-xdpi="124"
       inkscape:export-ydpi="124"
       transform="matrix(3.5433071,0,0,3.5433071,0.97915429,43.015662)">
      <path
         style="fill:none;stroke:none;stroke-width:3;stroke-linejoin:round;stroke-miterlimit:4;stroke-dasharray:none;stroke-opacity:1"
         d="m 2.5261452,10.346521 204.0458248,0 0,84.569863 -204.0458248,0 z"
         id="rect4250"
         inkscape:connector-curvature="0" />
      <g
         id="g4252"
         transform="matrix(0.28222222,0,0,0.28222222,-12.362072,-96.149385)"
         inkscape:export-filename="D:\dropbox\Studium\FS\Logo\d120_logo\logo_schutzzone.png"
         inkscape:export-xdpi="124.34215"
         inkscape:export-ydpi="124.34215">
        <path
           style="fill:#4d4d4d;fill-rule:evenodd;stroke:none"
           d="m 78.558319,398.30429 258.197541,0 0,258.19754 -258.197541,0 z"
           id="rect4254"
           inkscape:connector-curvature="0" />
        <g
           style="font-style:normal;font-weight:normal;font-size:96.04963684px;line-height:125%;font-family:Sans;letter-spacing:0px;word-spacing:0px;fill:#ffffff;fill-opacity:1;stroke:none"
           id="text4256">
          <path
             d="m 173.63238,508.96363 10.94965,-10.94966 5.57088,0 0,60.99152 -5.57088,0 0,-53.2115 -7.01162,7.01163 -3.93803,-3.84199 z"
             style="font-style:normal;font-variant:normal;font-weight:normal;font-stretch:normal;font-family:Linear;-inkscape-font-specification:Linear;fill:#ffffff"
             id="path5024"
             inkscape:connector-curvature="0" />
          <path
             d="m 209.11971,504.92955 c 4.89854,-4.70643 11.62201,-7.87607 18.72968,-7.87607 11.52596,0 19.01783,7.39582 19.01783,16.80868 0,11.42991 -9.31681,14.79165 -17.19288,20.26648 -7.87607,5.47483 -15.464,10.66151 -15.464,19.40202 l 32.65688,0 0,5.47483 -38.22775,0 0,-3.55383 c 0,-13.7351 9.50891,-20.17043 17.96128,-26.02945 7.87607,-5.47483 14.50349,-8.45237 14.50349,-15.464 0,-6.53137 -4.80248,-11.52595 -13.1588,-11.52595 -7.01162,0 -11.8141,3.45778 -15.36794,6.72347 l -3.45779,-4.22618 z"
             style="font-style:normal;font-variant:normal;font-weight:normal;font-stretch:normal;font-family:Linear;-inkscape-font-specification:Linear;fill:#ffffff"
             id="path5026"
             inkscape:connector-curvature="0" />
          <path
             d="m 259.12105,528.55776 c 0,-19.11388 8.35632,-31.40823 22.47562,-31.50428 14.1193,0.0961 22.47561,12.3904 22.47561,31.50428 0,19.11388 -8.35631,31.31218 -22.47561,31.40823 -14.1193,-0.096 -22.47562,-12.29435 -22.47562,-31.40823 z m 5.57088,0 c 0,17.28893 7.39583,26.22155 16.90474,26.22155 9.50891,0 16.90474,-8.93262 16.90474,-26.22155 0,-17.28894 -7.39583,-26.3176 -16.90474,-26.3176 -9.50891,0 -16.90474,9.02866 -16.90474,26.3176 z"
             style="font-style:normal;font-variant:normal;font-weight:normal;font-stretch:normal;font-family:Linear;-inkscape-font-specification:Linear;fill:#ffffff"
             id="path5028"
             inkscape:connector-curvature="0" />
        </g>
        <g
           transform="matrix(2.1672551,0,0,2.1672551,-790.53825,-517.06206)"
           id="g4260"
           style="font-style:normal;font-weight:normal;font-size:44.31856155px;line-height:125%;font-family:Sans;letter-spacing:0px;word-spacing:0px;fill:#ffffff;fill-opacity:1;stroke:none">
          <path
             sodipodi:nodetypes="csssccccsssc"
             inkscape:connector-curvature="0"
             id="path4262"
             style="font-style:normal;font-variant:normal;font-weight:normal;font-stretch:normal;font-family:Linear;-inkscape-font-specification:Linear;fill:#ffffff"
             d="m 414.95855,468.32209 13.4682,-0.008 c 7.66711,-0.005 12.71942,5.4955 12.71942,13.96035 0,7.80007 -3.72275,14.12981 -12.71942,14.12981 l -9.70577,0 -0.16636,-21.73869 2.61052,0.008 0.0631,19.16043 7.10978,0 c 4.56481,0 10.23759,-2.69562 10.23759,-11.55933 0,-6.38187 -3.63416,-11.41283 -10.23759,-11.38987 l -13.37491,0.0465" />
        </g>
      </g>
      <g
         transform="translate(0,90.972185)"
         id="g4264"
         inkscape:export-filename="D:\dropbox\Studium\FS\Logo\d120_logo\logo_schutzzone.png"
         inkscape:export-xdpi="124.34215"
         inkscape:export-ydpi="124.34215">
        <g
           style="font-style:normal;font-variant:normal;font-weight:normal;font-stretch:normal;font-size:14.11111069px;line-height:125%;font-family:sans-serif;-inkscape-font-specification:'sans-serif, Normal';text-align:start;letter-spacing:0px;word-spacing:0px;writing-mode:lr-tb;text-anchor:start;fill:#000000;fill-opacity:1;stroke:none"
           id="text4266">
          <path
             d="m 97.806433,-62.791688 0,3.175 5.134567,0 0,1.885156 -5.134567,0 0,4.208529 -2.439127,0 0,-11.153841 7.763864,0 0,1.885156 -5.324737,0 z"
             style="font-style:normal;font-variant:normal;font-weight:bold;font-stretch:normal;font-size:16.93333435px;font-family:'Liberation Mono';-inkscape-font-specification:'Liberation Mono Bold';letter-spacing:0.56444442px"
             id="path5031"
             inkscape:connector-curvature="0" />
          <path
             d="m 104.86971,-53.523003 3.66282,-11.153841 2.51354,0 3.65456,11.153841 -2.51354,0 -2.05052,-7.152018 q -0.28939,-1.033529 -0.34727,-1.570964 -0.13229,0.802018 -0.34726,1.570964 l -2.05052,7.152018 -2.52181,0 z"
             style="font-style:normal;font-variant:normal;font-weight:bold;font-stretch:normal;font-size:16.93333435px;font-family:'Liberation Mono';-inkscape-font-specification:'Liberation Mono Bold';letter-spacing:0.56444442px"
             id="path5033"
             inkscape:connector-curvature="0" />
          <path
             d="m 118.5641,-59.153667 q 0,1.860352 0.57878,2.869076 0.57877,1.008724 1.72806,1.008724 1.33945,0 1.98437,-2.017448 l 2.25723,0.429948 q -1.09968,3.505729 -4.26641,3.505729 -2.32337,0 -3.54707,-1.471745 -1.21543,-1.480013 -1.21543,-4.324284 0,-5.69681 4.69636,-5.69681 1.53789,0 2.57141,0.810286 1.0418,0.810287 1.52963,2.406055 l -2.24896,0.545703 q -0.23978,-0.876432 -0.71934,-1.355989 -0.47955,-0.487826 -1.09967,-0.487826 -2.24896,0 -2.24896,3.778581 z"
             style="font-style:normal;font-variant:normal;font-weight:bold;font-stretch:normal;font-size:16.93333435px;font-family:'Liberation Mono';-inkscape-font-specification:'Liberation Mono Bold';letter-spacing:0.56444442px"
             id="path5035"
             inkscape:connector-curvature="0" />
          <path
             d="m 132.72151,-53.523003 0,-4.745963 -3.00136,0 0,4.745963 -2.43913,0 0,-11.153841 2.43913,0 0,4.39043 3.00136,0 0,-4.39043 2.43913,0 0,11.153841 -2.43913,0 z"
             style="font-style:normal;font-variant:normal;font-weight:bold;font-stretch:normal;font-size:16.93333435px;font-family:'Liberation Mono';-inkscape-font-specification:'Liberation Mono Bold';letter-spacing:0.56444442px"
             id="path5037"
             inkscape:connector-curvature="0" />
          <path
             d="m 146.49032,-56.75588 q 0,1.5875 -1.21543,2.497005 -1.20716,0.901237 -3.36517,0.901237 -1.94303,0 -3.16673,-0.818555 -1.2237,-0.818555 -1.57096,-2.38125 l 2.35644,-0.305924 q 0.19017,0.777213 0.79375,1.231966 0.60358,0.446484 1.65365,0.446484 1.0914,0 1.6123,-0.347265 0.52917,-0.347266 0.52917,-1.083139 0,-0.545703 -0.46302,-0.917773 -0.46302,-0.380339 -1.34772,-0.595313 -1.77767,-0.429947 -2.51354,-0.74414 -0.72761,-0.322461 -1.16582,-0.719336 -0.43822,-0.396875 -0.678,-0.926042 -0.23151,-0.537435 -0.23151,-1.198893 0,-1.44694 1.15755,-2.2903 1.16582,-0.843359 3.06752,-0.843359 1.85208,0 2.89388,0.735872 1.04179,0.727604 1.34772,2.265495 l -2.36472,0.239779 q -0.3638,-1.513086 -1.92649,-1.513086 -0.87644,0 -1.33946,0.330729 -0.46302,0.322461 -0.46302,0.93431 0,0.405143 0.22324,0.677995 0.22325,0.264583 0.60358,0.454752 0.38861,0.181901 1.57097,0.487826 1.55443,0.380338 2.38952,0.851628 0.83509,0.46302 1.22369,1.124479 0.38861,0.661458 0.38861,1.504818 z"
             style="font-style:normal;font-variant:normal;font-weight:bold;font-stretch:normal;font-size:16.93333435px;font-family:'Liberation Mono';-inkscape-font-specification:'Liberation Mono Bold';letter-spacing:0.56444442px"
             id="path5039"
             inkscape:connector-curvature="0" />
          <path
             d="m 150.71759,-59.153667 q 0,1.860352 0.57878,2.869076 0.57877,1.008724 1.72806,1.008724 1.33945,0 1.98437,-2.017448 l 2.25723,0.429948 q -1.09967,3.505729 -4.26641,3.505729 -2.32337,0 -3.54707,-1.471745 -1.21543,-1.480013 -1.21543,-4.324284 0,-5.69681 4.69636,-5.69681 1.53789,0 2.57142,0.810286 1.04179,0.810287 1.52962,2.406055 l -2.24896,0.545703 q -0.23978,-0.876432 -0.71934,-1.355989 -0.47955,-0.487826 -1.09967,-0.487826 -2.24896,0 -2.24896,3.778581 z"
             style="font-style:normal;font-variant:normal;font-weight:bold;font-stretch:normal;font-size:16.93333435px;font-family:'Liberation Mono';-inkscape-font-specification:'Liberation Mono Bold';letter-spacing:0.56444442px"
             id="path5041"
             inkscape:connector-curvature="0" />
          <path
             d="m 164.87501,-53.523003 0,-4.745963 -3.00137,0 0,4.745963 -2.43913,0 0,-11.153841 2.43913,0 0,4.39043 3.00137,0 0,-4.39043 2.43912,0 0,11.153841 -2.43912,0 z"
             style="font-style:normal;font-variant:normal;font-weight:bold;font-stretch:normal;font-size:16.93333435px;font-family:'Liberation Mono';-inkscape-font-specification:'Liberation Mono Bold';letter-spacing:0.56444442px"
             id="path5043"
             inkscape:connector-curvature="0" />
          <path
             d="m 169.17669,-53.523003 3.66282,-11.153841 2.51354,0 3.65456,11.153841 -2.51354,0 -2.05052,-7.152018 q -0.28939,-1.033529 -0.34727,-1.570964 -0.13229,0.802018 -0.34726,1.570964 l -2.05052,7.152018 -2.52181,0 z"
             style="font-style:normal;font-variant:normal;font-weight:bold;font-stretch:normal;font-size:16.93333435px;font-family:'Liberation Mono';-inkscape-font-specification:'Liberation Mono Bold';letter-spacing:0.56444442px"
             id="path5045"
             inkscape:connector-curvature="0" />
          <path
             d="m 183.54908,-62.791688 0,3.175 5.13457,0 0,1.885156 -5.13457,0 0,4.208529 -2.43913,0 0,-11.153841 7.76387,0 0,1.885156 -5.32474,0 z"
             style="font-style:normal;font-variant:normal;font-weight:bold;font-stretch:normal;font-size:16.93333435px;font-family:'Liberation Mono';-inkscape-font-specification:'Liberation Mono Bold';letter-spacing:0.56444442px"
             id="path5047"
             inkscape:connector-curvature="0" />
          <path
             d="m 196.74737,-62.791688 0,9.268685 -2.43912,0 0,-9.268685 -3.3569,0 0,-1.885156 9.15293,0 0,1.885156 -3.35691,0 z"
             style="font-style:normal;font-variant:normal;font-weight:bold;font-stretch:normal;font-size:16.93333435px;font-family:'Liberation Mono';-inkscape-font-specification:'Liberation Mono Bold';letter-spacing:0.56444442px"
             id="path5049"
             inkscape:connector-curvature="0" />
        </g>
        <g
           style="font-style:normal;font-variant:normal;font-weight:normal;font-stretch:normal;font-size:11.28888893px;line-height:125%;font-family:'Liberation Mono';-inkscape-font-specification:'Liberation Mono';letter-spacing:0px;word-spacing:0px;fill:#000000;fill-opacity:1;stroke:none"
           id="text4272">
          <path
             d="m 100.19069,-21.216603 0,9.041999 -1.440048,0 0,-9.041999 -3.35759,0 0,-1.182357 8.155228,0 0,1.182357 -3.35759,0 z"
             style="font-size:15.52222347px"
             id="path5052"
             inkscape:connector-curvature="0" />
          <path
             d="m 112.34775,-15.888418 q 0,2.02365 -0.86403,2.948313 -0.86403,0.917085 -2.77399,0.917085 -1.84933,0 -2.68305,-0.886768 -0.82613,-0.894347 -0.82613,-2.842204 l 0,-6.646968 1.44763,0 0,6.449909 q 0,1.546159 0.43959,2.152495 0.44718,0.598758 1.61438,0.598758 1.22025,0 1.7129,-0.621495 0.49265,-0.621495 0.49265,-2.228288 l 0,-6.351379 1.44005,0 0,6.510542 z"
             style="font-size:15.52222347px"
             id="path5054"
             inkscape:connector-curvature="0" />
        </g>
        <g
           style="font-style:normal;font-weight:normal;font-size:11.28888893px;line-height:125%;font-family:Sans;letter-spacing:0px;word-spacing:0px;fill:#000000;fill-opacity:1;stroke:none"
           id="text4280">
          <path
             d="m 125.46567,-17.369291 q 0,2.508718 -1.1672,3.865397 -1.15962,1.349099 -3.32727,1.349099 l -2.80431,0 0,-10.224354 2.35713,0 q 2.49356,0 3.71382,1.250569 1.22783,1.242991 1.22783,3.759289 z m -1.45521,0 q 0,-2.000912 -0.83371,-2.910417 -0.83372,-0.917084 -2.64515,-0.917084 l -0.91708,0 0,7.859641 1.22783,0 q 1.60679,0 2.38745,-1.008035 0.78066,-1.008035 0.78066,-3.024105 z"
             style="font-style:normal;font-variant:normal;font-weight:normal;font-stretch:normal;font-size:15.52222252px;font-family:'Liberation Mono';-inkscape-font-specification:'Liberation Mono'"
             id="path5057"
             inkscape:connector-curvature="0" />
          <path
             d="m 135.4778,-12.154795 -1.52342,0 -2.41019,-6.836447 q -0.3638,-1.091407 -0.63665,-2.1146 -0.4017,1.462788 -0.63665,2.1146 l -2.42535,6.836447 -1.52342,0 3.8275,-10.224354 1.50068,0 3.8275,10.224354 z"
             style="font-style:normal;font-variant:normal;font-weight:normal;font-stretch:normal;font-size:15.52222252px;font-family:'Liberation Mono';-inkscape-font-specification:'Liberation Mono'"
             id="path5059"
             inkscape:connector-curvature="0" />
          <path
             d="m 142.8069,-12.154795 -2.77399,-4.358046 -1.80385,0 0,4.358046 -1.44763,0 0,-10.224354 3.65318,0 q 1.76595,0 2.69062,0.735183 0.92466,0.727604 0.92466,2.091862 0,1.129302 -0.71244,1.902382 -0.70487,0.773079 -1.89481,0.970139 l 3.03169,4.524788 -1.66743,0 z m -0.21222,-7.374571 q 0,-1.690164 -2.30408,-1.690164 l -2.06154,0 0,3.562229 2.12218,0 q 1.08382,0 1.65984,-0.48507 0.5836,-0.485069 0.5836,-1.386995 z"
             style="font-style:normal;font-variant:normal;font-weight:normal;font-stretch:normal;font-size:15.52222252px;font-family:'Liberation Mono';-inkscape-font-specification:'Liberation Mono'"
             id="path5061"
             inkscape:connector-curvature="0" />
          <path
             d="m 151.96259,-12.154795 0,-6.578754 q 0,-1.023194 0.0227,-1.523421 l 0.0227,-0.757921 q -0.48507,1.561317 -0.72002,2.20555 l -1.24299,3.319694 -1.03836,0 -1.25814,-3.319694 q -0.13643,-0.348644 -0.72761,-2.20555 l 0.0303,2.281342 0,6.578754 -1.21268,0 0,-10.224354 1.79628,0 1.40215,3.706234 q 0.15916,0.401698 0.51539,1.750797 l 0.19706,-0.682129 0.33348,-1.061089 1.40216,-3.713813 1.70532,0 0,10.224354 -1.22783,0 z"
             style="font-style:normal;font-variant:normal;font-weight:normal;font-stretch:normal;font-size:15.52222252px;font-family:'Liberation Mono';-inkscape-font-specification:'Liberation Mono'"
             id="path5063"
             inkscape:connector-curvature="0" />
          <path
             d="m 162.71749,-14.959102 q 0,1.394574 -1.0232,2.175233 -1.01561,0.780659 -2.90284,0.780659 -3.46369,0 -4.02456,-2.713358 l 1.40216,-0.280431 q 0.21222,0.977719 0.87919,1.424892 0.66697,0.439594 1.78111,0.439594 1.2051,0 1.82659,-0.469911 0.62907,-0.469911 0.62907,-1.333941 0,-0.530545 -0.25011,-0.86403 -0.24253,-0.333485 -0.64423,-0.545703 -0.4017,-0.212218 -0.90951,-0.341064 -0.50022,-0.136426 -1.01561,-0.265273 -1.22025,-0.318327 -1.74322,-0.568441 -0.51539,-0.250113 -0.82613,-0.56844 -0.31075,-0.325906 -0.46991,-0.742763 -0.15917,-0.416856 -0.15917,-0.977718 0,-1.311203 0.91709,-2.01607 0.92466,-0.712446 2.64514,-0.712446 1.60679,0 2.45566,0.560862 0.84888,0.560861 1.18236,1.894802 l -1.42489,0.250114 q -0.1819,-0.848871 -0.7276,-1.227832 -0.54571,-0.386539 -1.49311,-0.386539 -2.14491,0 -2.14491,1.614371 0,0.454753 0.19705,0.742763 0.20464,0.280431 0.54571,0.469911 0.34864,0.181901 0.80339,0.303168 0.46234,0.121268 0.9853,0.257694 1.05351,0.265272 1.51584,0.447173 0.46234,0.174322 0.81856,0.401698 0.3638,0.227376 0.62149,0.538124 0.2577,0.310748 0.4017,0.727604 0.15159,0.416857 0.15159,0.985298 z"
             style="font-style:normal;font-variant:normal;font-weight:normal;font-stretch:normal;font-size:15.52222252px;font-family:'Liberation Mono';-inkscape-font-specification:'Liberation Mono'"
             id="path5065"
             inkscape:connector-curvature="0" />
          <path
             d="m 168.84907,-21.196792 0,9.041997 -1.44005,0 0,-9.041997 -3.35759,0 0,-1.182357 8.15523,0 0,1.182357 -3.35759,0 z"
             style="font-style:normal;font-variant:normal;font-weight:normal;font-stretch:normal;font-size:15.52222252px;font-family:'Liberation Mono';-inkscape-font-specification:'Liberation Mono'"
             id="path5067"
             inkscape:connector-curvature="0" />
          <path
             d="m 182.01415,-12.154795 -1.52342,0 -2.41019,-6.836447 q -0.3638,-1.091407 -0.63665,-2.1146 -0.4017,1.462788 -0.63665,2.1146 l -2.42535,6.836447 -1.52342,0 3.8275,-10.224354 1.50068,0 3.8275,10.224354 z"
             style="font-style:normal;font-variant:normal;font-weight:normal;font-stretch:normal;font-size:15.52222252px;font-family:'Liberation Mono';-inkscape-font-specification:'Liberation Mono'"
             id="path5069"
             inkscape:connector-curvature="0" />
          <path
             d="m 190.61656,-17.369291 q 0,2.508718 -1.1672,3.865397 -1.15962,1.349099 -3.32727,1.349099 l -2.80431,0 0,-10.224354 2.35714,0 q 2.49356,0 3.71381,1.250569 1.22783,1.242991 1.22783,3.759289 z m -1.45521,0 q 0,-2.000912 -0.83371,-2.910417 -0.83371,-0.917084 -2.64514,-0.917084 l -0.91709,0 0,7.859641 1.22783,0 q 1.6068,0 2.38746,-1.008035 0.78065,-1.008035 0.78065,-3.024105 z"
             style="font-style:normal;font-variant:normal;font-weight:normal;font-stretch:normal;font-size:15.52222252px;font-family:'Liberation Mono';-inkscape-font-specification:'Liberation Mono'"
             id="path5071"
             inkscape:connector-curvature="0" />
          <path
             d="m 196.77088,-21.196792 0,9.041997 -1.44005,0 0,-9.041997 -3.35759,0 0,-1.182357 8.15523,0 0,1.182357 -3.35759,0 z"
             style="font-style:normal;font-variant:normal;font-weight:normal;font-stretch:normal;font-size:15.52222252px;font-family:'Liberation Mono';-inkscape-font-specification:'Liberation Mono'"
             id="path5073"
             inkscape:connector-curvature="0" />
        </g>
        <g
           transform="scale(0.99723545,1.0027722)"
           style="font-style:normal;font-variant:normal;font-weight:normal;font-stretch:normal;font-size:14.07209969px;line-height:125%;font-family:sans-serif;-inkscape-font-specification:'sans-serif, Normal';text-align:start;letter-spacing:0px;word-spacing:0px;writing-mode:lr-tb;text-anchor:start;fill:#000000;fill-opacity:1;stroke:none"
           id="text4284">
          <path
             d="m 95.63809,-43.3831 7.55276,0 0,1.879945 -2.56431,0 0,7.363117 2.56431,0 0,1.879944 -7.55276,0 0,-1.879944 2.564311,0 0,-7.363117 -2.564311,0 0,-1.879945 z"
             style="font-style:normal;font-variant:normal;font-weight:bold;font-stretch:normal;font-size:16.88652039px;font-family:'Liberation Mono';-inkscape-font-specification:'Liberation Mono Bold';letter-spacing:0.56288397px"
             id="path5076"
             inkscape:connector-curvature="0" />
          <path
             d="m 111.1993,-32.260094 -3.16622,-8.327825 q 0.23087,2.077834 0.23087,2.918862 l 0,5.408963 -2.11906,0 0,-11.123006 2.77869,0 3.24043,8.55045 q -0.23087,-1.937662 -0.23087,-3.00956 l 0,-5.54089 2.11906,0 0,11.123006 -2.8529,0 z"
             style="font-style:normal;font-variant:normal;font-weight:bold;font-stretch:normal;font-size:16.88652039px;font-family:'Liberation Mono';-inkscape-font-specification:'Liberation Mono Bold';letter-spacing:0.56288397px"
             id="path5078"
             inkscape:connector-curvature="0" />
          <path
             d="m 119.52933,-41.503155 0,3.166223 5.12037,0 0,1.879944 -5.12037,0 0,4.196894 -2.43239,0 0,-11.123006 7.74241,0 0,1.879945 -5.31002,0 z"
             style="font-style:normal;font-variant:normal;font-weight:bold;font-stretch:normal;font-size:16.88652039px;font-family:'Liberation Mono';-inkscape-font-specification:'Liberation Mono Bold';letter-spacing:0.56288397px"
             id="path5080"
             inkscape:connector-curvature="0" />
          <path
             d="m 135.94806,-37.858701 q 0,2.844653 -1.15435,4.304084 -1.15435,1.459431 -3.31464,1.459431 -2.16029,0 -3.32289,-1.459431 -1.15435,-1.459431 -1.15435,-4.304084 0,-2.844653 1.15435,-4.271102 1.1626,-1.426449 3.32289,-1.426449 2.16029,0 3.31464,1.426449 1.15435,1.426449 1.15435,4.271102 z m -2.46537,0 q 0,-3.784625 -2.00362,-3.784625 -2.01187,0 -2.01187,3.784625 0,1.896436 0.50297,2.877635 0.51121,0.972954 1.5089,0.972954 0.99769,0 1.50066,-0.972954 0.50296,-0.981199 0.50296,-2.877635 z"
             style="font-style:normal;font-variant:normal;font-weight:bold;font-stretch:normal;font-size:16.88652039px;font-family:'Liberation Mono';-inkscape-font-specification:'Liberation Mono Bold';letter-spacing:0.56288397px"
             id="path5082"
             inkscape:connector-curvature="0" />
          <path
             d="m 144.47597,-32.260094 -2.39115,-4.246366 -1.42645,0 0,4.246366 -2.43239,0 0,-11.123006 4.07322,0 q 2.17677,0 3.25692,0.849274 1.08014,0.849273 1.08014,2.448875 0,1.129616 -0.61016,1.921171 -0.61015,0.791556 -1.6903,1.113126 l 2.87764,4.79056 -2.73747,0 z m -0.28858,-7.725913 q 0,-0.775064 -0.51122,-1.137861 -0.51121,-0.371042 -1.63258,-0.371042 l -1.38522,0 0,3.10026 1.45118,0 q 2.07784,0 2.07784,-1.591357 z"
             style="font-style:normal;font-variant:normal;font-weight:bold;font-stretch:normal;font-size:16.88652039px;font-family:'Liberation Mono';-inkscape-font-specification:'Liberation Mono Bold';letter-spacing:0.56288397px"
             id="path5084"
             inkscape:connector-curvature="0" />
          <path
             d="m 155.27136,-32.260094 0,-7.156982 q 0,-0.865764 0.13193,-2.481857 -0.48648,2.391158 -0.6184,2.811672 l -1.02243,3.858834 -1.79749,0 -1.03892,-3.858834 q -0.23911,-0.8905 -0.62665,-2.811672 l 0.0577,0.824537 q 0.0577,0.865764 0.0577,1.65732 l 0,7.156982 -1.81398,0 0,-11.123006 2.86114,0 1.11313,4.114441 q 0.12368,0.387532 0.31332,1.90468 0.16491,-1.278032 0.32981,-1.896435 l 1.12138,-4.122686 2.76219,0 0,11.123006 -1.83047,0 z"
             style="font-style:normal;font-variant:normal;font-weight:bold;font-stretch:normal;font-size:16.88652039px;font-family:'Liberation Mono';-inkscape-font-specification:'Liberation Mono Bold';letter-spacing:0.56288397px"
             id="path5086"
             inkscape:connector-curvature="0" />
          <path
             d="m 158.63767,-32.260094 3.6527,-11.123006 2.50659,0 3.64446,11.123006 -2.5066,0 -2.04485,-7.132246 q -0.28859,-1.030671 -0.3463,-1.56662 -0.13193,0.799801 -0.34631,1.56662 l -2.04485,7.132246 -2.51484,0 z"
             style="font-style:normal;font-variant:normal;font-weight:bold;font-stretch:normal;font-size:16.88652039px;font-family:'Liberation Mono';-inkscape-font-specification:'Liberation Mono Bold';letter-spacing:0.56288397px"
             id="path5088"
             inkscape:connector-curvature="0" />
          <path
             d="m 175.44394,-41.503155 0,9.243061 -2.43239,0 0,-9.243061 -3.34762,0 0,-1.879945 9.12763,0 0,1.879945 -3.34762,0 z"
             style="font-style:normal;font-variant:normal;font-weight:bold;font-stretch:normal;font-size:16.88652039px;font-family:'Liberation Mono';-inkscape-font-specification:'Liberation Mono Bold';letter-spacing:0.56288397px"
             id="path5090"
             inkscape:connector-curvature="0" />
          <path
             d="m 181.14369,-43.3831 7.55276,0 0,1.879945 -2.56431,0 0,7.363117 2.56431,0 0,1.879944 -7.55276,0 0,-1.879944 2.56431,0 0,-7.363117 -2.56431,0 0,-1.879945 z"
             style="font-style:normal;font-variant:normal;font-weight:bold;font-stretch:normal;font-size:16.88652039px;font-family:'Liberation Mono';-inkscape-font-specification:'Liberation Mono Bold';letter-spacing:0.56288397px"
             id="path5092"
             inkscape:connector-curvature="0" />
          <path
             d="m 197.80153,-32.260094 -2.66325,-4.592671 -1.04716,1.170842 0,3.421829 -2.43239,0 0,-11.123006 2.43239,0 0,4.938978 3.59498,-4.938978 2.82816,0 -3.79287,4.77407 3.94953,6.348936 -2.86939,0 z"
             style="font-style:normal;font-variant:normal;font-weight:bold;font-stretch:normal;font-size:16.88652039px;font-family:'Liberation Mono';-inkscape-font-specification:'Liberation Mono Bold';letter-spacing:0.56288397px"
             id="path5094"
             inkscape:connector-curvature="0" />
        </g>
      </g>
    </g>
  </g>
</svg>
