<?xml version="1.0" encoding="UTF-8" standalone="no"?>
<svg
   xmlns:dc="http://purl.org/dc/elements/1.1/"
   xmlns:cc="http://creativecommons.org/ns#"
   xmlns:rdf="http://www.w3.org/1999/02/22-rdf-syntax-ns#"
   xmlns:svg="http://www.w3.org/2000/svg"
   xmlns="http://www.w3.org/2000/svg"
   xmlns:sodipodi="http://sodipodi.sourceforge.net/DTD/sodipodi-0.dtd"
   xmlns:inkscape="http://www.inkscape.org/namespaces/inkscape"
   version="1.1"
   id="svg4427"
   viewBox="0 0 258.19753 258.19753"
   height="275.41071"
   width="275.41071"
   sodipodi:docname="logo_quadrat.svg"
   inkscape:version="0.92.3 (2405546, 2018-03-11)">
  <sodipodi:namedview
     pagecolor="#ffffff"
     bordercolor="#666666"
     borderopacity="1"
     objecttolerance="10"
     gridtolerance="10"
     guidetolerance="10"
     inkscape:pageopacity="0"
     inkscape:pageshadow="2"
     inkscape:window-width="1920"
     inkscape:window-height="1147"
     id="namedview15"
     showgrid="false"
     fit-margin-top="0"
     fit-margin-left="0"
     fit-margin-right="0"
     fit-margin-bottom="0"
     inkscape:zoom="2.0199322"
     inkscape:cx="189.20152"
     inkscape:cy="181.81926"
     inkscape:window-x="0"
     inkscape:window-y="28"
     inkscape:window-maximized="1"
     inkscape:current-layer="svg4427" />
  <defs
     id="defs4429" />
  <metadata
     id="metadata4432">
    <rdf:RDF>
      <cc:Work
         rdf:about="">
        <dc:format>image/svg+xml</dc:format>
        <dc:type
           rdf:resource="http://purl.org/dc/dcmitype/StillImage" />
        <dc:title></dc:title>
      </cc:Work>
    </rdf:RDF>
  </metadata>
  <g
     transform="translate(-78.558319,-398.30429)"
     id="g4252">
    <path
       inkscape:connector-curvature="0"
       id="rect4254"
       d="M 78.558319,398.30429 H 336.75586 V 656.50183 H 78.558319 Z"
       style="fill:#4d4d4d;fill-rule:evenodd;stroke:none" />
    <g
       id="text4256"
       style="font-style:normal;font-weight:normal;font-size:96.04963684px;line-height:125%;font-family:Sans;letter-spacing:0px;word-spacing:0px;fill:#ffffff;fill-opacity:1;stroke:none">
      <path
         inkscape:connector-curvature="0"
         id="path5024"
         style="font-style:normal;font-variant:normal;font-weight:normal;font-stretch:normal;font-family:Linear;-inkscape-font-specification:Linear;fill:#ffffff"
         d="m 173.63238,508.96363 10.94965,-10.94966 h 5.57088 v 60.99152 h -5.57088 v -53.2115 l -7.01162,7.01163 z" />
      <path
         inkscape:connector-curvature="0"
         id="path5026"
         style="font-style:normal;font-variant:normal;font-weight:normal;font-stretch:normal;font-family:Linear;-inkscape-font-specification:Linear;fill:#ffffff"
         d="m 209.11971,504.92955 c 4.89854,-4.70643 11.62201,-7.87607 18.72968,-7.87607 11.52596,0 19.01783,7.39582 19.01783,16.80868 0,11.42991 -9.31681,14.79165 -17.19288,20.26648 -7.87607,5.47483 -15.464,10.66151 -15.464,19.40202 h 32.65688 v 5.47483 h -38.22775 v -3.55383 c 0,-13.7351 9.50891,-20.17043 17.96128,-26.02945 7.87607,-5.47483 14.50349,-8.45237 14.50349,-15.464 0,-6.53137 -4.80248,-11.52595 -13.1588,-11.52595 -7.01162,0 -11.8141,3.45778 -15.36794,6.72347 z" />
      <path
         inkscape:connector-curvature="0"
         id="path5028"
         style="font-style:normal;font-variant:normal;font-weight:normal;font-stretch:normal;font-family:Linear;-inkscape-font-specification:Linear;fill:#ffffff"
         d="m 259.12105,528.55776 c 0,-19.11388 8.35632,-31.40823 22.47562,-31.50428 14.1193,0.0961 22.47561,12.3904 22.47561,31.50428 0,19.11388 -8.35631,31.31218 -22.47561,31.40823 -14.1193,-0.096 -22.47562,-12.29435 -22.47562,-31.40823 z m 5.57088,0 c 0,17.28893 7.39583,26.22155 16.90474,26.22155 9.50891,0 16.90474,-8.93262 16.90474,-26.22155 0,-17.28894 -7.39583,-26.3176 -16.90474,-26.3176 -9.50891,0 -16.90474,9.02866 -16.90474,26.3176 z" />
    </g>
    <g
       style="font-style:normal;font-weight:normal;font-size:44.31856155px;line-height:125%;font-family:Sans;letter-spacing:0px;word-spacing:0px;fill:#ffffff;fill-opacity:1;stroke:none"
       id="g4260"
       transform="matrix(2.1672551,0,0,2.1672551,-790.53825,-517.06206)">
      <path
         inkscape:connector-curvature="0"
         d="m 414.95855,468.32209 13.4682,-0.008 c 7.66711,-0.005 12.71942,5.4955 12.71942,13.96035 0,7.80007 -3.72275,14.12981 -12.71942,14.12981 h -9.70577 l -0.16636,-21.73869 2.61052,0.008 0.0631,19.16043 h 7.10978 c 4.56481,0 10.23759,-2.69562 10.23759,-11.55933 0,-6.38187 -3.63416,-11.41283 -10.23759,-11.38987 l -13.37491,0.0465"
         style="font-style:normal;font-variant:normal;font-weight:normal;font-stretch:normal;font-family:Linear;-inkscape-font-specification:Linear;fill:#ffffff"
         id="path4262" />
    </g>
  </g>
</svg>
